<?xml version="1.0" encoding="utf-8"?>
<!-- Generator: Adobe Illustrator 16.0.0, SVG Export Plug-In . SVG Version: 6.00 Build 0)  -->
<!DOCTYPE svg PUBLIC "-//W3C//DTD SVG 1.1//EN" "http://www.w3.org/Graphics/SVG/1.1/DTD/svg11.dtd">
<svg version="1.1" id="Capa_1" xmlns="http://www.w3.org/2000/svg" xmlns:xlink="http://www.w3.org/1999/xlink" x="0px" y="0px"
	 width="260px" height="60px" viewBox="0 0 260 60" enable-background="new 0 0 260 60" xml:space="preserve">
<rect x="-32.902" y="-28.855" fill="#F55E5E" width="319.493" height="111.618"/>
<g>
	<path fill="#F9F7F8" d="M93.749,24.215c0.193,0.561,0.14,1.053-0.161,1.476c-0.301,0.423-0.762,0.635-1.384,0.635
		c-0.469,0-0.821-0.112-1.055-0.336c-0.234-0.224-0.413-0.556-0.535-0.994l-0.153-0.52h-3.334c-0.479,1.101-1.07,1.934-1.774,2.5
		s-1.606,0.849-2.707,0.849c-1.335,0-2.375-0.37-3.12-1.109s-1.116-1.71-1.116-2.914c0-0.856,0.158-1.514,0.474-1.973
		c0.356-0.5,0.856-0.749,1.499-0.749c0.459,0,0.828,0.127,1.109,0.382c0.28,0.255,0.42,0.591,0.42,1.009
		c0,0.122-0.031,0.316-0.092,0.581c-0.061,0.204-0.092,0.423-0.092,0.658c0,0.734,0.306,1.101,0.917,1.101
		c0.571,0,1.132-0.658,1.683-1.973c0.245-0.581,0.744-2.064,1.499-4.45c0.01-0.051,0.025-0.102,0.046-0.153l0.352-1.04
		c0.255-0.734,0.568-1.269,0.94-1.605s0.905-0.505,1.598-0.505c0.704,0,1.244,0.168,1.621,0.505c0.377,0.336,0.693,0.867,0.948,1.59
		L93.749,24.215z M87.983,21.937h1.743l-0.902-3.104h-0.031l-0.275,0.918C88.366,20.433,88.187,21.162,87.983,21.937z"/>
	<path fill="#F9F7F8" d="M100.814,26.326H96.93c-0.571,0-1.007-0.15-1.308-0.451c-0.301-0.3-0.451-0.736-0.451-1.308v-7.814
		c0-0.51,0.153-0.915,0.458-1.216c0.306-0.301,0.714-0.451,1.224-0.451s0.915,0.15,1.216,0.451s0.451,0.706,0.451,1.216l0.015,6.438
		h2.264c0.479,0,0.861,0.14,1.147,0.42c0.285,0.28,0.428,0.665,0.428,1.155c0,0.489-0.14,0.872-0.42,1.147
		C101.673,26.188,101.293,26.326,100.814,26.326z"/>
	<path fill="#F9F7F8" d="M109.806,26.326h-4.542c-0.571,0-1.007-0.15-1.308-0.451c-0.301-0.3-0.451-0.736-0.451-1.308v-7.723
		c0-0.561,0.15-0.994,0.451-1.3c0.3-0.306,0.736-0.459,1.308-0.459h4.526c0.398,0,0.714,0.117,0.948,0.352
		c0.234,0.235,0.352,0.551,0.352,0.948c0,0.398-0.117,0.714-0.352,0.948c-0.234,0.235-0.55,0.352-0.948,0.352h-2.936v1.683h2.432
		c0.408,0,0.736,0.12,0.986,0.359c0.25,0.24,0.375,0.568,0.375,0.986s-0.122,0.747-0.367,0.986c-0.245,0.24-0.571,0.359-0.979,0.359
		h-2.447v1.682h2.936c0.398,0,0.714,0.117,0.948,0.352c0.234,0.234,0.352,0.55,0.352,0.948c0,0.398-0.114,0.711-0.344,0.941
		C110.517,26.211,110.204,26.326,109.806,26.326z"/>
	<path fill="#F9F7F8" d="M114.715,26.463c-0.877,0-1.596-0.188-2.156-0.566c-0.5-0.346-0.75-0.815-0.75-1.407
		c0-0.397,0.115-0.729,0.344-0.994c0.229-0.265,0.532-0.397,0.91-0.397c0.132,0,0.313,0.033,0.543,0.099
		c0.229,0.066,0.451,0.1,0.665,0.1c0.347,0,0.576-0.181,0.688-0.543c0.112-0.362,0.168-1.022,0.168-1.98v-4.068
		c0-0.5,0.153-0.899,0.459-1.201c0.306-0.3,0.713-0.451,1.223-0.451s0.915,0.148,1.216,0.444s0.451,0.698,0.451,1.208v4.267
		c0,1.856-0.278,3.234-0.833,4.137S116.112,26.463,114.715,26.463z"/>
	<path fill="#F9F7F8" d="M129.687,24.215c0.184,0.541,0.135,1.027-0.145,1.46c-0.281,0.434-0.742,0.65-1.384,0.65
		c-0.469,0-0.823-0.112-1.063-0.336c-0.239-0.224-0.42-0.561-0.542-1.009l-0.153-0.504h-3.41l-0.153,0.504
		c-0.112,0.438-0.288,0.772-0.528,1.002c-0.24,0.229-0.594,0.344-1.063,0.344c-0.643,0-1.104-0.216-1.384-0.65
		c-0.28-0.433-0.334-0.92-0.161-1.46l2.417-7.035c0.254-0.724,0.573-1.254,0.956-1.59s0.92-0.505,1.614-0.505
		c0.703,0,1.238,0.166,1.605,0.497c0.367,0.332,0.683,0.869,0.948,1.613L129.687,24.215z M123.738,21.937h1.896l-0.933-3.104h-0.031
		L123.738,21.937z"/>
	<path fill="#F9F7F8" d="M134.008,25.875c-0.291,0.301-0.701,0.451-1.232,0.451c-0.529,0-0.941-0.15-1.238-0.451
		c-0.295-0.3-0.443-0.711-0.443-1.231v-7.799c0-0.561,0.148-0.994,0.443-1.3c0.297-0.306,0.703-0.459,1.225-0.459
		c0.406,0,0.74,0.112,1.002,0.336c0.26,0.225,0.633,0.673,1.123,1.346l2.936,4.007h0.031l-0.016-3.991
		c0-0.52,0.148-0.933,0.443-1.239c0.297-0.306,0.709-0.459,1.24-0.459c0.529,0,0.939,0.153,1.23,0.459
		c0.291,0.306,0.436,0.719,0.436,1.239v7.784c0,0.561-0.15,0.994-0.451,1.3c-0.301,0.306-0.717,0.458-1.246,0.458
		c-0.439,0-0.818-0.132-1.139-0.397c-0.322-0.265-0.752-0.765-1.293-1.499l-2.6-3.533h-0.031l0.016,3.747
		C134.443,25.164,134.299,25.574,134.008,25.875z"/>
	<path fill="#F9F7F8" d="M147.519,26.326h-2.584c-0.571,0-1.007-0.15-1.308-0.451c-0.301-0.3-0.451-0.736-0.451-1.308v-7.723
		c0-0.561,0.15-0.994,0.451-1.3c0.301-0.306,0.736-0.459,1.308-0.459h2.584c1.906,0,3.37,0.502,4.39,1.506
		c1.02,1.004,1.529,2.378,1.529,4.122c0,1.743-0.51,3.115-1.529,4.114S149.425,26.326,147.519,26.326z M146.524,17.991v5.429h1.086
		c0.765,0,1.352-0.229,1.759-0.688c0.408-0.459,0.612-1.132,0.612-2.019c0-0.897-0.21-1.575-0.627-2.034
		c-0.419-0.458-1-0.688-1.744-0.688H146.524z"/>
	<path fill="#F9F7F8" d="M157.91,25.875c-0.29,0.301-0.701,0.451-1.231,0.451c-0.529,0-0.942-0.15-1.238-0.451
		c-0.296-0.3-0.443-0.711-0.443-1.231v-7.814c0-0.571,0.15-1.007,0.451-1.308s0.736-0.451,1.308-0.451l2.584,0.015
		c1.561,0.01,2.743,0.332,3.548,0.963c0.806,0.632,1.209,1.565,1.209,2.799c0,0.714-0.169,1.313-0.505,1.797
		c-0.337,0.484-0.78,0.783-1.331,0.895v0.031c0.633,0.112,1.122,0.441,1.469,0.986s0.52,1.2,0.52,1.965
		c0,0.602-0.168,1.061-0.505,1.376c-0.336,0.316-0.765,0.474-1.284,0.474c-0.489,0-0.887-0.132-1.193-0.397
		c-0.306-0.265-0.458-0.678-0.458-1.239c0-1.172-0.459-1.759-1.377-1.759l-1.086-0.015v1.682
		C158.346,25.164,158.201,25.574,157.91,25.875z M158.346,17.869v2.6h1.071c0.836,0,1.254-0.454,1.254-1.361
		c0-0.826-0.479-1.239-1.438-1.239H158.346z"/>
	<path fill="#F9F7F8" d="M175.213,24.215c0.184,0.541,0.135,1.027-0.146,1.46c-0.28,0.434-0.741,0.65-1.384,0.65
		c-0.469,0-0.823-0.112-1.063-0.336c-0.24-0.224-0.421-0.561-0.543-1.009l-0.153-0.504h-3.41l-0.153,0.504
		c-0.112,0.438-0.288,0.772-0.527,1.002c-0.239,0.229-0.594,0.344-1.063,0.344c-0.643,0-1.104-0.216-1.384-0.65
		c-0.281-0.433-0.335-0.92-0.161-1.46l2.416-7.035c0.255-0.724,0.574-1.254,0.956-1.59c0.383-0.336,0.92-0.505,1.613-0.505
		c0.704,0,1.239,0.166,1.606,0.497c0.366,0.332,0.683,0.869,0.947,1.613L175.213,24.215z M169.264,21.937h1.896l-0.933-3.104h-0.03
		L169.264,21.937z"/>
	<path fill="#F9F7F8" d="M185.49,26.463c-1.814,0-3.272-0.515-4.374-1.544c-1.101-1.03-1.651-2.426-1.651-4.19
		c0-1.764,0.553-3.163,1.659-4.198s2.562-1.552,4.366-1.552c0.999,0,1.794,0.178,2.386,0.535c0.551,0.336,0.826,0.806,0.826,1.407
		c0,0.408-0.123,0.747-0.367,1.017c-0.245,0.271-0.566,0.405-0.964,0.405c-0.204,0-0.484-0.048-0.841-0.145
		c-0.357-0.097-0.663-0.146-0.918-0.146c-0.765,0-1.401,0.232-1.911,0.696c-0.51,0.464-0.765,1.124-0.765,1.98
		s0.252,1.514,0.757,1.973c0.505,0.459,1.134,0.688,1.889,0.688c0.285,0,0.609-0.048,0.971-0.146
		c0.362-0.097,0.65-0.145,0.864-0.145c0.377,0,0.686,0.135,0.926,0.405c0.239,0.27,0.359,0.604,0.359,1.001
		c0,0.622-0.291,1.106-0.872,1.453C187.29,26.295,186.51,26.463,185.49,26.463z"/>
	<path fill="#F9F7F8" d="M195.309,26.448c-1.815,0-3.248-0.525-4.298-1.575c-1.05-1.05-1.575-2.432-1.575-4.145
		c0-1.672,0.53-3.048,1.591-4.129c1.06-1.081,2.478-1.621,4.251-1.621c1.774,0,3.191,0.541,4.252,1.621
		c1.06,1.081,1.59,2.457,1.59,4.129c0,1.713-0.518,3.095-1.552,4.145C198.532,25.923,197.112,26.448,195.309,26.448z
		 M195.277,23.451c0.724,0,1.3-0.237,1.729-0.711c0.428-0.474,0.642-1.145,0.642-2.011c0-0.887-0.219-1.565-0.657-2.034
		c-0.438-0.469-1.009-0.704-1.713-0.704c-0.703,0-1.271,0.234-1.705,0.704c-0.434,0.469-0.649,1.147-0.649,2.034
		c0,0.867,0.216,1.537,0.649,2.011S194.574,23.451,195.277,23.451z"/>
	<path fill="#F9F7F8" d="M203.918,26.326c-0.54,0-0.958-0.188-1.254-0.566c-0.296-0.377-0.403-0.902-0.321-1.575l0.811-6.912
		c0.092-0.754,0.285-1.308,0.581-1.659c0.296-0.352,0.719-0.528,1.27-0.528c0.51,0,0.912,0.143,1.208,0.428
		c0.296,0.286,0.581,0.77,0.856,1.453l1.575,4.236h0.03l1.575-4.251c0.255-0.663,0.535-1.139,0.842-1.43
		c0.306-0.291,0.719-0.436,1.238-0.436c0.561,0,0.981,0.176,1.262,0.528c0.28,0.352,0.472,0.91,0.573,1.674l0.796,6.897
		c0.081,0.673-0.026,1.198-0.321,1.575c-0.296,0.377-0.714,0.566-1.254,0.566c-0.53,0-0.929-0.158-1.193-0.474
		c-0.266-0.316-0.428-0.805-0.489-1.468l-0.306-3.319h-0.031l-1.223,3.594c-0.204,0.612-0.413,1.043-0.627,1.292
		c-0.215,0.25-0.5,0.375-0.856,0.375c-0.378,0-0.666-0.122-0.864-0.367c-0.199-0.245-0.4-0.673-0.604-1.285l-1.254-3.609h-0.03
		l-0.291,3.319c-0.071,0.663-0.239,1.152-0.505,1.468C204.846,26.168,204.448,26.326,203.918,26.326z"/>
	<path fill="#F9F7F8" d="M226.062,24.215c0.184,0.541,0.135,1.027-0.146,1.46c-0.28,0.434-0.741,0.65-1.384,0.65
		c-0.469,0-0.823-0.112-1.063-0.336c-0.24-0.224-0.421-0.561-0.543-1.009l-0.153-0.504h-3.41l-0.153,0.504
		c-0.112,0.438-0.288,0.772-0.527,1.002c-0.239,0.229-0.594,0.344-1.063,0.344c-0.643,0-1.104-0.216-1.384-0.65
		c-0.281-0.433-0.335-0.92-0.161-1.46l2.416-7.035c0.255-0.724,0.574-1.254,0.956-1.59c0.383-0.336,0.92-0.505,1.613-0.505
		c0.704,0,1.239,0.166,1.606,0.497c0.366,0.332,0.683,0.869,0.947,1.613L226.062,24.215z M220.112,21.937h1.896l-0.933-3.104h-0.03
		L220.112,21.937z"/>
	<path fill="#F9F7F8" d="M235.864,22.839c0,1.193-0.397,2.098-1.193,2.715c-0.795,0.617-1.911,0.925-3.349,0.925
		c-1.417,0-2.58-0.28-3.487-0.841c-0.642-0.397-0.963-0.887-0.963-1.468c0-0.428,0.124-0.772,0.374-1.032s0.579-0.39,0.986-0.39
		c0.266,0,0.709,0.141,1.331,0.421s1.152,0.42,1.591,0.42c0.346,0,0.608-0.063,0.787-0.191c0.179-0.127,0.268-0.288,0.268-0.481
		c0-0.071-0.016-0.14-0.046-0.207c-0.03-0.066-0.079-0.125-0.146-0.176c-0.066-0.051-0.135-0.097-0.206-0.138
		c-0.071-0.041-0.166-0.082-0.283-0.123c-0.117-0.041-0.222-0.074-0.313-0.099s-0.212-0.061-0.359-0.107s-0.268-0.084-0.359-0.115
		c-0.408-0.143-0.734-0.263-0.979-0.359c-0.245-0.097-0.543-0.247-0.895-0.451s-0.625-0.421-0.818-0.65
		c-0.193-0.229-0.364-0.533-0.513-0.91c-0.147-0.377-0.222-0.795-0.222-1.254c0-1.04,0.377-1.858,1.132-2.455
		c0.755-0.596,1.795-0.895,3.12-0.895c1.458,0,2.589,0.265,3.395,0.795c0.489,0.337,0.734,0.75,0.734,1.239
		c0,0.428-0.12,0.775-0.359,1.04s-0.568,0.397-0.986,0.397c-0.337,0-0.765-0.107-1.285-0.321c-0.52-0.214-0.933-0.321-1.238-0.321
		c-0.602,0-0.902,0.204-0.902,0.612c0,0.132,0.062,0.247,0.184,0.344c0.122,0.097,0.242,0.168,0.359,0.214s0.309,0.11,0.573,0.191
		c1.152,0.357,1.917,0.632,2.294,0.826C235.272,20.596,235.864,21.544,235.864,22.839z"/>
	<path fill="#F9F7F8" d="M80.103,43.578c-0.297,0-0.446-0.158-0.446-0.475v-9.248c0-0.565,0.235-0.849,0.705-0.849
		c0.201,0,0.369,0.058,0.503,0.173s0.264,0.321,0.388,0.618l3.524,8.587h0.029l3.552-8.587c0.125-0.307,0.25-0.515,0.374-0.625
		s0.292-0.166,0.503-0.166c0.23,0,0.405,0.077,0.525,0.23s0.18,0.359,0.18,0.618v9.248c0,0.316-0.148,0.475-0.446,0.475
		s-0.446-0.158-0.446-0.475v-8.615H89.02l-3.466,8.256c-0.125,0.297-0.242,0.511-0.352,0.64c-0.11,0.13-0.247,0.194-0.41,0.194
		c-0.153,0-0.285-0.058-0.396-0.173c-0.11-0.114-0.223-0.312-0.338-0.589l-3.48-8.328h-0.029v8.615
		C80.548,43.42,80.399,43.578,80.103,43.578z"/>
	<path fill="#F9F7F8" d="M101.086,42.945c0.058,0.163,0.045,0.31-0.036,0.438c-0.082,0.13-0.218,0.194-0.41,0.194
		c-0.211,0-0.364-0.129-0.46-0.389l-1.107-2.761h-5.034l-1.093,2.761c-0.048,0.135-0.104,0.233-0.166,0.295
		c-0.063,0.063-0.161,0.094-0.295,0.094c-0.182,0-0.319-0.064-0.41-0.194c-0.091-0.129-0.103-0.275-0.036-0.438l3.625-9.004
		c0.134-0.354,0.261-0.599,0.381-0.733c0.12-0.134,0.295-0.201,0.525-0.201c0.25,0,0.429,0.069,0.54,0.209
		c0.11,0.139,0.237,0.405,0.381,0.798L101.086,42.945z M94.399,39.551h4.329l-2.158-5.394h-0.029L94.399,39.551z"/>
	<path fill="#F9F7F8" d="M104.028,43.435c-0.082,0.096-0.199,0.144-0.353,0.144s-0.273-0.048-0.359-0.144
		c-0.086-0.096-0.129-0.216-0.129-0.359v-9.579c0-0.326,0.163-0.489,0.489-0.489h3.035c1.237,0,2.201,0.24,2.891,0.72
		s1.036,1.304,1.036,2.474c0,0.854-0.221,1.548-0.662,2.085c-0.441,0.537-0.988,0.863-1.64,0.979l2.042,3.495
		c0.086,0.134,0.13,0.259,0.13,0.374c0,0.124-0.053,0.229-0.158,0.316c-0.106,0.086-0.226,0.129-0.36,0.129
		c-0.172,0-0.331-0.115-0.475-0.345l-2.258-3.854h-3.107v3.696C104.15,43.219,104.109,43.339,104.028,43.435z M104.15,33.855v4.675
		h3.38c0.614,0,1.129-0.216,1.546-0.647s0.625-0.992,0.625-1.683c0-0.854-0.259-1.458-0.777-1.813
		c-0.518-0.354-1.242-0.532-2.171-0.532H104.15z"/>
	<path fill="#F9F7F8" d="M113.966,43.435c-0.082,0.096-0.199,0.144-0.353,0.144s-0.273-0.048-0.359-0.144
		c-0.086-0.096-0.129-0.216-0.129-0.359v-9.579c0-0.326,0.163-0.489,0.489-0.489h3.035c1.237,0,2.201,0.24,2.891,0.72
		s1.036,1.304,1.036,2.474c0,0.854-0.221,1.548-0.662,2.085c-0.441,0.537-0.988,0.863-1.64,0.979l2.042,3.495
		c0.086,0.134,0.13,0.259,0.13,0.374c0,0.124-0.053,0.229-0.158,0.316c-0.106,0.086-0.226,0.129-0.36,0.129
		c-0.172,0-0.331-0.115-0.475-0.345l-2.258-3.854h-3.107v3.696C114.088,43.219,114.047,43.339,113.966,43.435z M114.088,33.855
		v4.675h3.38c0.614,0,1.129-0.216,1.546-0.647s0.625-0.992,0.625-1.683c0-0.854-0.259-1.458-0.777-1.813
		c-0.518-0.354-1.242-0.532-2.171-0.532H114.088z"/>
	<path fill="#F9F7F8" d="M127.191,43.708c-1.4,0-2.462-0.41-3.186-1.23c-0.724-0.819-1.086-1.92-1.086-3.301v-5.666
		c0-0.145,0.043-0.264,0.129-0.36c0.086-0.096,0.206-0.144,0.36-0.144c0.153,0,0.271,0.048,0.352,0.144
		c0.082,0.097,0.123,0.216,0.123,0.36v5.666c0,1.064,0.268,1.939,0.805,2.625s1.371,1.028,2.502,1.028
		c1.122,0,1.954-0.345,2.496-1.035c0.542-0.69,0.813-1.563,0.813-2.618v-5.666c0-0.145,0.041-0.264,0.123-0.36
		c0.081-0.096,0.199-0.144,0.352-0.144s0.273,0.048,0.36,0.144c0.086,0.097,0.129,0.216,0.129,0.36v5.666
		c0,1.381-0.365,2.481-1.093,3.301C129.641,43.298,128.581,43.708,127.191,43.708z"/>
	<path fill="#F9F7F8" d="M139.187,43.708c-1.621,0-2.93-0.491-3.927-1.475c-0.997-0.982-1.496-2.304-1.496-3.962
		c0-1.631,0.499-2.935,1.496-3.912c0.997-0.979,2.306-1.468,3.927-1.468c1.16,0,2.075,0.188,2.747,0.562
		c0.191,0.115,0.287,0.249,0.287,0.402c0,0.144-0.048,0.254-0.144,0.331s-0.206,0.105-0.331,0.086
		c-0.776-0.316-1.605-0.475-2.488-0.475c-1.323,0-2.406,0.4-3.25,1.201s-1.266,1.892-1.266,3.272c0,1.39,0.41,2.493,1.229,3.308
		c0.82,0.815,1.906,1.223,3.258,1.223c0.834,0,1.572-0.153,2.215-0.46v-3.841c0-0.144,0.043-0.264,0.13-0.359
		c0.086-0.096,0.206-0.144,0.359-0.144s0.271,0.048,0.353,0.144c0.081,0.096,0.122,0.216,0.122,0.359v4.07
		c0,0.278-0.14,0.479-0.417,0.604C141.186,43.53,140.251,43.708,139.187,43.708z"/>
	<path fill="#F9F7F8" d="M149.513,43.693c-1.516,0-2.762-0.496-3.739-1.488c-0.979-0.993-1.468-2.299-1.468-3.92
		c0-1.591,0.489-2.886,1.468-3.883c0.978-0.997,2.224-1.496,3.739-1.496c1.524,0,2.775,0.496,3.754,1.488
		c0.978,0.993,1.467,2.29,1.467,3.891c0,1.631-0.486,2.939-1.46,3.927C152.301,43.199,151.047,43.693,149.513,43.693z
		 M149.513,42.83c1.256,0,2.274-0.409,3.057-1.229c0.781-0.819,1.172-1.925,1.172-3.315c0-1.352-0.391-2.439-1.172-3.265
		c-0.782-0.824-1.801-1.237-3.057-1.237c-1.247,0-2.261,0.415-3.042,1.244c-0.781,0.83-1.172,1.916-1.172,3.258
		c0,1.391,0.391,2.496,1.172,3.315C147.252,42.421,148.266,42.83,149.513,42.83z"/>
</g>
<g>
	<g>
		<path fill="#F9F7F8" d="M50.717,30.6c-0.703,0-1.404-0.27-1.939-0.805l-16.25-16.251L20.459,25.611
			c-1.071,1.071-2.808,1.071-3.877,0c-1.072-1.07-1.072-2.807,0-3.877L30.588,7.728c0.514-0.516,1.21-0.804,1.939-0.804
			c0.726,0,1.424,0.288,1.938,0.804l18.19,18.188c1.071,1.071,1.071,2.808,0,3.879C52.121,30.33,51.417,30.6,50.717,30.6z"/>
	</g>
	<g>
		<path fill="#F9F7F8" d="M43.084,50.295c-0.702,0-1.403-0.268-1.938-0.803L27.527,35.873c-1.072-1.073-1.072-2.806,0-3.879
			L51.382,8.139c0.514-0.515,1.211-0.804,1.939-0.804c0.727,0,1.425,0.289,1.938,0.804L69.072,21.95
			c1.072,1.072,1.072,2.808,0,3.879c-1.069,1.071-2.807,1.071-3.876,0L53.322,13.955l-19.979,19.98l9.741,9.74l11.772-11.771
			c1.069-1.075,2.807-1.075,3.877,0c1.071,1.071,1.071,2.806,0,3.878l-13.71,13.71C44.488,50.027,43.786,50.295,43.084,50.295z"/>
	</g>
</g>
</svg>
