<?xml version="1.0" encoding="utf-8"?>
<!-- Generator: Adobe Illustrator 16.0.0, SVG Export Plug-In . SVG Version: 6.00 Build 0)  -->
<!DOCTYPE svg PUBLIC "-//W3C//DTD SVG 1.1//EN" "http://www.w3.org/Graphics/SVG/1.1/DTD/svg11.dtd">
<svg version="1.1" id="Capa_1" xmlns="http://www.w3.org/2000/svg" xmlns:xlink="http://www.w3.org/1999/xlink" x="0px" y="0px"
	 width="50px" height="50px" viewBox="0 0 50 50" enable-background="new 0 0 50 50" xml:space="preserve">
<rect x="-0.006" fill-rule="evenodd" clip-rule="evenodd" fill="#18142D" width="50" height="50"/>
<g>
	<path fill-rule="evenodd" clip-rule="evenodd" fill="#FFFFFF" d="M48.07,24.808c0,3.396,0.013,6.785-0.006,10.184
		c-0.037,6.317-4.798,11.806-11.056,12.731c-0.697,0.107-1.411,0.155-2.121,0.16c-6.646,0.014-13.285,0.004-19.931,0.004
		c-6.368,0-11.886-4.717-12.858-11.011c-0.108-0.699-0.162-1.418-0.164-2.127C1.923,28.137,1.923,21.52,1.928,14.906
		C1.93,8.703,6.09,3.455,12.137,2.076c0.938-0.214,1.922-0.31,2.886-0.314c6.651-0.028,13.306-0.023,19.959-0.014
		c6.538,0.01,12.022,4.771,12.958,11.237c0.096,0.695,0.125,1.403,0.125,2.104C48.079,18.325,48.07,21.567,48.07,24.808
		L48.07,24.808z M25.002,6.185c-3.325,0-6.651-0.005-9.979,0c-4.804,0.011-8.653,3.854-8.658,8.659
		C6.36,21.494,6.36,28.149,6.369,34.802c0,0.536,0.049,1.075,0.151,1.602c0.811,4.147,4.312,7.043,8.536,7.047
		c6.634,0.01,13.268,0.005,19.899,0c0.385,0,0.776-0.02,1.151-0.072c4.37-0.607,7.521-4.222,7.526-8.629
		c0.004-6.612,0.008-13.226-0.006-19.839c-0.006-0.65-0.069-1.313-0.213-1.942c-0.907-4.028-4.365-6.783-8.49-6.783
		C31.616,6.18,28.31,6.185,25.002,6.185z"/>
	<path fill-rule="evenodd" clip-rule="evenodd" fill="#FFFFFF" d="M12.968,24.817c0.015-6.652,5.443-12.063,12.055-12.028
		c6.667,0.038,12.012,5.42,11.997,12.076c-0.016,6.622-5.416,11.99-12.062,11.977C18.346,36.827,12.955,31.42,12.968,24.817z
		 M17.406,24.808c-0.015,4.158,3.386,7.578,7.539,7.592c4.192,0.02,7.618-3.347,7.638-7.516c0.018-4.219-3.349-7.63-7.563-7.659
		C20.854,17.201,17.42,20.616,17.406,24.808z"/>
	<path fill-rule="evenodd" clip-rule="evenodd" fill="#FFFFFF" d="M37.294,9.875c1.52,0.005,2.745,1.234,2.749,2.756
		c0,1.521-1.249,2.767-2.773,2.757c-1.535-0.01-2.754-1.244-2.747-2.784C34.531,11.086,35.768,9.87,37.294,9.875z"/>
</g>
</svg>
