<?xml version="1.0" encoding="utf-8"?>
<!-- Generator: Adobe Illustrator 16.0.0, SVG Export Plug-In . SVG Version: 6.00 Build 0)  -->
<!DOCTYPE svg PUBLIC "-//W3C//DTD SVG 1.1//EN" "http://www.w3.org/Graphics/SVG/1.1/DTD/svg11.dtd">
<svg version="1.1" id="Capa_1" xmlns="http://www.w3.org/2000/svg" xmlns:xlink="http://www.w3.org/1999/xlink" x="0px" y="0px"
	 width="50px" height="50px" viewBox="0 0 50 50" enable-background="new 0 0 50 50" xml:space="preserve">
<rect x="0.055" fill-rule="evenodd" clip-rule="evenodd" fill="#18142D" width="50" height="50"/>
<g>
	<path fill-rule="evenodd" clip-rule="evenodd" fill="#FFFFFF" d="M0.806,24.885c0-13.451,10.85-24.313,24.285-24.309
		C38.464,0.579,49.26,11.497,49.249,25.01c-0.004,13.387-10.914,24.196-24.412,24.182C11.632,49.181,0.806,38.229,0.806,24.885z
		 M5.53,24.831c0,10.868,8.725,19.645,19.516,19.637c10.646-0.018,19.477-8.775,19.48-19.333
		c0.005-11.064-8.585-19.814-19.473-19.832C14.269,5.288,5.53,14.026,5.53,24.831z"/>
	<path fill-rule="evenodd" clip-rule="evenodd" fill="#FFFFFF" d="M30.714,24.888c-1.261,0-2.435,0-3.705,0
		c0,4.457,0,8.855,0,13.289c-1.803,0-3.506,0-5.293,0c0-4.402,0-8.773,0-13.239c-0.942,0-1.799,0-2.708,0c0-1.538,0-2.984,0-4.535
		c0.897,0,1.754,0,2.701,0c0-1.166,0-2.229,0-3.291c0-3.451,1.39-5.047,4.81-5.322c1.479-0.12,2.973-0.021,4.523-0.021
		c0,1.534,0,3.038,0,4.647c-0.944,0-1.862-0.01-2.778,0c-0.915,0.014-1.223,0.286-1.255,1.201c-0.033,0.889-0.006,1.784-0.006,2.783
		c1.392,0,2.696,0,4.098,0C30.97,21.93,30.844,23.35,30.714,24.888z"/>
</g>
</svg>
