<?xml version="1.0" encoding="utf-8"?>
<!-- Generator: Adobe Illustrator 16.0.0, SVG Export Plug-In . SVG Version: 6.00 Build 0)  -->
<!DOCTYPE svg PUBLIC "-//W3C//DTD SVG 1.1//EN" "http://www.w3.org/Graphics/SVG/1.1/DTD/svg11.dtd">
<svg version="1.1" id="Capa_1" xmlns="http://www.w3.org/2000/svg" xmlns:xlink="http://www.w3.org/1999/xlink" x="0px" y="0px"
	 width="20px" height="20px" viewBox="0 0 20 20" enable-background="new 0 0 20 20" xml:space="preserve">
<rect x="-65.465" y="-2.667" fill="#D14444" width="91.334" height="25.376"/>
<path fill="#FFFFFF" d="M19.988,10L19.988,10L19.988,10c0-1.177-0.203-2.304-0.576-3.352C18.034,2.78,14.34,0.011,10,0.011
	C5.66,0.012,1.968,2.78,0.589,6.646C0.215,7.694,0.012,8.823,0.012,10l0,0l0,0l0,0l0,0c0,1.149,0.194,2.254,0.553,3.282
	c1.358,3.904,5.07,6.707,9.436,6.707c4.366,0,8.079-2.803,9.438-6.707C19.794,12.254,19.988,11.148,19.988,10L19.988,10L19.988,10z"
	/>
<g>
	<path fill="none" d="M0.199,9.266c-0.068,0.354-0.122,0.713-0.151,1.08h0.016C0.09,10.018,0.132,9.655,0.199,9.266z"/>
	<path fill="#D22127" d="M3.125,17.236h13.397h0.046h0.309c0.521-0.496,0.986-1.047,1.392-1.645H1.733
		C2.138,16.189,2.604,16.74,3.125,17.236z"/>
	<path fill="#D22127" d="M8.927,10.821h11.028c0.021-0.271,0.033-0.545,0.033-0.821l0,0c0-0.277-0.013-0.552-0.035-0.822H8.927
		V10.821z"/>
	<path fill="#D22127" d="M8.927,7.612h10.769c-0.081-0.327-0.172-0.65-0.283-0.964c-0.082-0.23-0.174-0.457-0.273-0.68H8.927V7.612z
		"/>
	<path fill="#D22127" d="M8.927,4.403h9.34c-0.404-0.597-0.871-1.148-1.392-1.643H8.927V4.403z"/>
	<path fill="#D22127" d="M8.927,0.069v1.126h5.78c-0.715-0.384-1.479-0.685-2.284-0.886c-1.689-0.396-1.671-0.256-1.671-0.256
		C10.489-0.041,9.101,0.065,8.927,0.069z"/>
	
		<line fill="none" stroke="#D22127" stroke-width="0" stroke-linecap="round" stroke-linejoin="round" x1="16.522" y1="17.236" x2="16.568" y2="17.236"/>
	<path fill="#D22127" d="M10,19.988c1.68,0,3.26-0.418,4.648-1.15H5.353C6.741,19.57,8.322,19.988,10,19.988z"/>
	<path fill="#D22127" d="M0.564,13.281c0.088,0.254,0.187,0.504,0.295,0.746h18.067h0.06h0.155c0.108-0.242,0.207-0.492,0.296-0.746
		c0.101-0.291,0.187-0.592,0.26-0.896H0.303C0.378,12.689,0.462,12.99,0.564,13.281z"/>
	<path fill="#262566" d="M0.029,10.389c0.003,0.089,0.004,0.178,0.01,0.268c0.008,0.104,0.014,0.164,0.014,0.164h9.034V9.177V7.612
		V5.968V4.403V2.76V1.195V0.053L8.386,0.141C7.26,0.284,6.82,0.54,5.961,0.869C5.698,0.985,5.441,1.114,5.19,1.252
		c0.002,0.08,0.019,0.166,0.063,0.258C5.162,1.426,5.074,1.385,4.988,1.366C4.568,1.61,4.168,1.883,3.79,2.184
		C3.757,2.301,3.78,2.432,3.848,2.576C3.734,2.471,3.627,2.41,3.518,2.405c-0.375,0.32-0.725,0.666-1.049,1.037
		C2.48,3.505,2.498,3.571,2.53,3.641c-0.047-0.043-0.094-0.076-0.14-0.104C1.77,4.268,1.249,5.086,0.858,5.975
		C0.937,6.116,1.058,6.194,1.3,6.13C1.009,6.307,0.995,6.529,1.122,6.798C0.931,6.624,0.753,6.585,0.564,6.725
		C0.41,7.168,0.29,7.627,0.199,8.096C0.132,8.485,0.09,8.849,0.063,9.177C0.023,9.683,0.021,10.102,0.029,10.389z M2.53,9.995
		C2.305,9.788,2.098,9.746,1.87,10c0.087-0.276,0.091-0.501-0.229-0.638c0.338,0.047,0.485-0.114,0.528-0.428
		C2.25,9.213,2.349,9.422,2.71,9.327C2.418,9.503,2.405,9.725,2.53,9.995z M5.253,9.995C5.026,9.788,4.819,9.746,4.591,10
		c0.088-0.276,0.091-0.501-0.229-0.638C4.7,9.409,4.847,9.248,4.891,8.934c0.081,0.279,0.18,0.488,0.541,0.393
		C5.14,9.503,5.126,9.725,5.253,9.995z M8.152,9.327C7.861,9.503,7.848,9.725,7.975,9.995C7.748,9.788,7.54,9.746,7.313,10
		C7.4,9.723,7.403,9.499,7.084,9.362c0.337,0.047,0.484-0.114,0.528-0.428C7.692,9.213,7.792,9.422,8.152,9.327z M7.612,0.45
		c0.08,0.279,0.18,0.488,0.54,0.393C7.861,1.018,7.848,1.241,7.975,1.51C7.748,1.302,7.54,1.261,7.313,1.515
		C7.4,1.239,7.403,1.014,7.084,0.877C7.421,0.924,7.568,0.763,7.612,0.45z M7.612,2.581c0.08,0.279,0.18,0.488,0.54,0.393
		C7.861,3.149,7.848,3.372,7.975,3.641C7.748,3.433,7.54,3.392,7.313,3.645C7.4,3.37,7.403,3.145,7.084,3.008
		C7.421,3.055,7.568,2.894,7.612,2.581z M7.612,4.672c0.08,0.279,0.18,0.488,0.54,0.393C7.861,5.241,7.848,5.463,7.975,5.733
		C7.748,5.526,7.54,5.484,7.313,5.737C7.4,5.461,7.403,5.237,7.084,5.1C7.421,5.147,7.568,4.987,7.612,4.672z M7.612,6.803
		c0.08,0.28,0.18,0.488,0.54,0.393C7.861,7.372,7.848,7.594,7.975,7.864C7.748,7.656,7.54,7.616,7.313,7.869
		C7.4,7.592,7.403,7.368,7.084,7.231C7.421,7.278,7.568,7.117,7.612,6.803z M6.212,1.515c0.08,0.28,0.179,0.488,0.54,0.393
		C6.46,2.084,6.446,2.306,6.573,2.576C6.347,2.368,6.141,2.327,5.911,2.581c0.088-0.275,0.091-0.5-0.229-0.638
		C6.021,1.991,6.167,1.829,6.212,1.515z M6.212,3.645c0.08,0.281,0.179,0.49,0.54,0.395C6.46,4.215,6.446,4.437,6.573,4.708
		c-0.227-0.209-0.433-0.25-0.662,0.004c0.088-0.275,0.091-0.5-0.229-0.637C6.021,4.121,6.167,3.959,6.212,3.645z M6.212,5.737
		c0.08,0.281,0.179,0.489,0.54,0.394C6.46,6.307,6.446,6.529,6.573,6.798C6.347,6.59,6.141,6.549,5.911,6.803
		c0.088-0.276,0.091-0.5-0.229-0.638C6.021,6.212,6.167,6.051,6.212,5.737z M6.212,7.869c0.08,0.28,0.179,0.488,0.54,0.393
		C6.46,8.438,6.446,8.66,6.573,8.929C6.347,8.721,6.141,8.68,5.911,8.934c0.088-0.275,0.091-0.5-0.229-0.638
		C6.021,8.344,6.167,8.182,6.212,7.869z M4.891,2.581C4.972,2.86,5.07,3.069,5.432,2.973C5.14,3.149,5.126,3.372,5.253,3.641
		C5.026,3.433,4.819,3.392,4.591,3.645c0.088-0.275,0.091-0.5-0.229-0.637C4.7,3.055,4.847,2.894,4.891,2.581z M4.891,4.672
		c0.081,0.279,0.18,0.488,0.541,0.393C5.14,5.241,5.126,5.463,5.253,5.733C5.026,5.526,4.819,5.484,4.591,5.737
		c0.088-0.275,0.091-0.5-0.229-0.637C4.7,5.147,4.847,4.987,4.891,4.672z M4.891,6.803c0.081,0.28,0.18,0.488,0.541,0.393
		C5.14,7.372,5.126,7.594,5.253,7.864C5.026,7.656,4.819,7.616,4.591,7.869c0.088-0.276,0.091-0.501-0.229-0.638
		C4.7,7.278,4.847,7.117,4.891,6.803z M3.486,3.645c0.079,0.281,0.179,0.49,0.539,0.395C3.734,4.215,3.721,4.437,3.848,4.708
		c-0.227-0.209-0.435-0.25-0.662,0.004c0.088-0.275,0.091-0.5-0.229-0.637C3.295,4.121,3.441,3.959,3.486,3.645z M3.486,5.737
		C3.565,6.018,3.665,6.226,4.025,6.13C3.734,6.307,3.721,6.529,3.848,6.798C3.621,6.59,3.413,6.549,3.186,6.803
		c0.088-0.276,0.091-0.5-0.229-0.638C3.295,6.212,3.441,6.051,3.486,5.737z M3.486,7.869c0.079,0.28,0.179,0.488,0.539,0.393
		C3.734,8.438,3.721,8.66,3.848,8.929C3.621,8.721,3.413,8.68,3.186,8.934c0.088-0.275,0.091-0.5-0.229-0.638
		C3.295,8.344,3.441,8.182,3.486,7.869z M2.169,4.672C2.25,4.952,2.349,5.161,2.71,5.065C2.418,5.241,2.405,5.463,2.53,5.733
		C2.305,5.526,2.098,5.484,1.87,5.737c0.087-0.275,0.091-0.5-0.229-0.637C1.979,5.147,2.126,4.987,2.169,4.672z M2.169,6.803
		c0.081,0.28,0.18,0.488,0.541,0.393C2.418,7.372,2.405,7.594,2.53,7.864C2.305,7.656,2.098,7.616,1.87,7.869
		c0.087-0.276,0.091-0.501-0.229-0.638C1.979,7.278,2.126,7.117,2.169,6.803z M0.76,7.869c0.08,0.28,0.179,0.488,0.54,0.393
		C1.009,8.438,0.995,8.66,1.122,8.929C0.895,8.721,0.688,8.68,0.46,8.934c0.087-0.275,0.091-0.5-0.229-0.638
		C0.568,8.344,0.716,8.182,0.76,7.869z"/>
	<path fill="#FFFFFF" d="M2.169,8.934c-0.043,0.313-0.19,0.475-0.528,0.428C1.961,9.499,1.957,9.723,1.87,10
		c0.228-0.254,0.435-0.212,0.66-0.005c-0.125-0.27-0.112-0.491,0.18-0.668C2.349,9.422,2.25,9.213,2.169,8.934z"/>
	<path fill="#FFFFFF" d="M4.891,8.934C4.847,9.248,4.7,9.409,4.362,9.362C4.682,9.499,4.679,9.723,4.591,10
		c0.229-0.254,0.436-0.212,0.662-0.005C5.126,9.725,5.14,9.503,5.432,9.327C5.07,9.422,4.972,9.213,4.891,8.934z"/>
	<path fill="#FFFFFF" d="M7.084,9.362C7.403,9.499,7.4,9.723,7.313,10C7.54,9.746,7.748,9.788,7.975,9.995
		c-0.127-0.27-0.113-0.491,0.178-0.668c-0.36,0.096-0.46-0.113-0.54-0.393C7.568,9.248,7.421,9.409,7.084,9.362z"/>
	<path fill="#FFFFFF" d="M1.87,7.869c0.228-0.253,0.435-0.213,0.66-0.005c-0.125-0.27-0.112-0.492,0.18-0.668
		C2.349,7.292,2.25,7.083,2.169,6.803c-0.043,0.313-0.19,0.475-0.528,0.428C1.961,7.368,1.957,7.592,1.87,7.869z"/>
	<path fill="#FFFFFF" d="M4.591,7.869c0.229-0.253,0.436-0.213,0.662-0.005C5.126,7.594,5.14,7.372,5.432,7.196
		C5.07,7.292,4.972,7.083,4.891,6.803C4.847,7.117,4.7,7.278,4.362,7.231C4.682,7.368,4.679,7.592,4.591,7.869z"/>
	<path fill="#FFFFFF" d="M7.313,7.869C7.54,7.616,7.748,7.656,7.975,7.864c-0.127-0.27-0.113-0.492,0.178-0.668
		c-0.36,0.096-0.46-0.112-0.54-0.393C7.568,7.117,7.421,7.278,7.084,7.231C7.403,7.368,7.4,7.592,7.313,7.869z"/>
	<path fill="#FFFFFF" d="M1.87,5.737c0.228-0.253,0.435-0.211,0.66-0.004c-0.125-0.27-0.112-0.492,0.18-0.668
		C2.349,5.161,2.25,4.952,2.169,4.672C2.126,4.987,1.979,5.147,1.641,5.1C1.961,5.237,1.957,5.461,1.87,5.737z"/>
	<path fill="#FFFFFF" d="M4.591,5.737c0.229-0.253,0.436-0.211,0.662-0.004C5.126,5.463,5.14,5.241,5.432,5.065
		C5.07,5.161,4.972,4.952,4.891,4.672C4.847,4.987,4.7,5.147,4.362,5.1C4.682,5.237,4.679,5.461,4.591,5.737z"/>
	<path fill="#FFFFFF" d="M7.313,5.737C7.54,5.484,7.748,5.526,7.975,5.733c-0.127-0.27-0.113-0.492,0.178-0.668
		c-0.36,0.096-0.46-0.113-0.54-0.393C7.568,4.987,7.421,5.147,7.084,5.1C7.403,5.237,7.4,5.461,7.313,5.737z"/>
	<path fill="#FFFFFF" d="M0.46,8.934C0.688,8.68,0.895,8.721,1.122,8.929C0.995,8.66,1.009,8.438,1.3,8.261
		C0.938,8.357,0.84,8.149,0.76,7.869C0.716,8.182,0.568,8.344,0.23,8.296C0.551,8.434,0.547,8.659,0.46,8.934z"/>
	<path fill="#FFFFFF" d="M3.186,8.934C3.413,8.68,3.621,8.721,3.848,8.929C3.721,8.66,3.734,8.438,4.025,8.261
		c-0.36,0.096-0.46-0.112-0.539-0.393C3.441,8.182,3.295,8.344,2.957,8.296C3.276,8.434,3.273,8.659,3.186,8.934z"/>
	<path fill="#FFFFFF" d="M5.911,8.934C6.141,8.68,6.347,8.721,6.573,8.929C6.446,8.66,6.46,8.438,6.752,8.261
		c-0.361,0.096-0.46-0.112-0.54-0.393C6.167,8.182,6.021,8.344,5.683,8.296C6.002,8.434,5.999,8.659,5.911,8.934z"/>
	<path fill="#FFFFFF" d="M1.122,6.798C0.995,6.529,1.009,6.307,1.3,6.13C1.058,6.194,0.937,6.116,0.858,5.975
		c-0.098,0.22-0.188,0.443-0.27,0.672C0.58,6.672,0.573,6.7,0.564,6.725C0.753,6.585,0.931,6.624,1.122,6.798z"/>
	<path fill="#FFFFFF" d="M3.186,6.803C3.413,6.549,3.621,6.59,3.848,6.798C3.721,6.529,3.734,6.307,4.025,6.13
		c-0.36,0.096-0.46-0.112-0.539-0.394C3.441,6.051,3.295,6.212,2.957,6.166C3.276,6.303,3.273,6.527,3.186,6.803z"/>
	<path fill="#FFFFFF" d="M5.911,6.803C6.141,6.549,6.347,6.59,6.573,6.798C6.446,6.529,6.46,6.307,6.752,6.13
		c-0.361,0.096-0.46-0.112-0.54-0.394C6.167,6.051,6.021,6.212,5.683,6.166C6.002,6.303,5.999,6.527,5.911,6.803z"/>
	<path fill="#FFFFFF" d="M2.469,3.442C2.442,3.473,2.417,3.506,2.391,3.538c0.046,0.027,0.093,0.061,0.14,0.104
		C2.498,3.571,2.48,3.505,2.469,3.442z"/>
	<path fill="#FFFFFF" d="M4.591,3.645c0.229-0.253,0.436-0.212,0.662-0.004C5.126,3.372,5.14,3.149,5.432,2.973
		C5.07,3.069,4.972,2.86,4.891,2.581C4.847,2.894,4.7,3.055,4.362,3.008C4.682,3.145,4.679,3.37,4.591,3.645z"/>
	<path fill="#FFFFFF" d="M7.313,3.645C7.54,3.392,7.748,3.433,7.975,3.641c-0.127-0.27-0.113-0.492,0.178-0.668
		c-0.36,0.096-0.46-0.113-0.54-0.393C7.568,2.894,7.421,3.055,7.084,3.008C7.403,3.145,7.4,3.37,7.313,3.645z"/>
	<path fill="#FFFFFF" d="M5.19,1.252C5.122,1.29,5.055,1.327,4.988,1.366c0.086,0.02,0.174,0.061,0.265,0.145
		C5.209,1.418,5.192,1.333,5.19,1.252z"/>
	<path fill="#FFFFFF" d="M7.313,1.515C7.54,1.261,7.748,1.302,7.975,1.51c-0.127-0.27-0.113-0.492,0.178-0.668
		c-0.36,0.096-0.46-0.113-0.54-0.393C7.568,0.763,7.421,0.924,7.084,0.877C7.403,1.014,7.4,1.239,7.313,1.515z"/>
	<path fill="#FFFFFF" d="M3.186,4.711c0.228-0.254,0.436-0.213,0.662-0.004C3.721,4.437,3.734,4.215,4.025,4.04
		c-0.36,0.096-0.46-0.113-0.539-0.395c-0.045,0.314-0.191,0.476-0.529,0.43C3.276,4.211,3.273,4.436,3.186,4.711z"/>
	<path fill="#FFFFFF" d="M5.911,4.711c0.229-0.254,0.436-0.213,0.662-0.004C6.446,4.437,6.46,4.215,6.752,4.04
		c-0.361,0.096-0.46-0.113-0.54-0.395c-0.045,0.314-0.191,0.476-0.529,0.43C6.002,4.211,5.999,4.436,5.911,4.711z"/>
	<path fill="#FFFFFF" d="M3.79,2.184C3.699,2.256,3.606,2.329,3.518,2.405c0.109,0.005,0.217,0.066,0.33,0.171
		C3.78,2.432,3.757,2.301,3.79,2.184z"/>
	<path fill="#FFFFFF" d="M5.911,2.581c0.229-0.254,0.436-0.213,0.662-0.005C6.446,2.306,6.46,2.084,6.752,1.908
		c-0.361,0.096-0.46-0.112-0.54-0.393C6.167,1.829,6.021,1.991,5.683,1.943C6.002,2.081,5.999,2.305,5.911,2.581z"/>
</g>
</svg>
