<?xml version="1.0" encoding="utf-8"?>
<!-- Generator: Adobe Illustrator 16.0.0, SVG Export Plug-In . SVG Version: 6.00 Build 0)  -->
<!DOCTYPE svg PUBLIC "-//W3C//DTD SVG 1.1//EN" "http://www.w3.org/Graphics/SVG/1.1/DTD/svg11.dtd">
<svg version="1.1" id="Capa_1" xmlns="http://www.w3.org/2000/svg" xmlns:xlink="http://www.w3.org/1999/xlink" x="0px" y="0px"
	 width="35px" height="35px" viewBox="0 0 35 35" enable-background="new 0 0 35 35" xml:space="preserve">
<rect x="-7.5" y="-7.5" fill-rule="evenodd" clip-rule="evenodd" fill="#F55E5E" width="50" height="50"/>
<g>
	<path fill="#FFFFFF" d="M15.896,26.062c-0.001,1.014,0.718,1.834,1.604,1.834l0,0c0.885,0,1.604-0.82,1.604-1.834V11.335
		c0-1.013-0.719-1.834-1.604-1.834l0,0c-0.886,0-1.606,0.821-1.604,1.834V26.062z"/>
	<path fill="#FFFFFF" d="M10.137,17.094c-1.014-0.001-1.834,0.717-1.834,1.604l0,0c0,0.886,0.821,1.604,1.834,1.604h14.726
		c1.014,0,1.834-0.719,1.834-1.604l0,0c-0.001-0.887-0.82-1.606-1.835-1.604H10.137z"/>
</g>
</svg>
