<?xml version="1.0" encoding="utf-8"?>
<!-- Generator: Adobe Illustrator 16.0.0, SVG Export Plug-In . SVG Version: 6.00 Build 0)  -->
<!DOCTYPE svg PUBLIC "-//W3C//DTD SVG 1.1//EN" "http://www.w3.org/Graphics/SVG/1.1/DTD/svg11.dtd">
<svg version="1.1" id="Capa_1" xmlns="http://www.w3.org/2000/svg" xmlns:xlink="http://www.w3.org/1999/xlink" x="0px" y="0px"
	 width="35px" height="35px" viewBox="0 0 35 35" enable-background="new 0 0 35 35" xml:space="preserve">
<rect x="-7.506" y="-7.5" fill-rule="evenodd" clip-rule="evenodd" fill="#0C0F23" width="50" height="50"/>
<g>
	<path fill="#FFFFFF" d="M12.161,14.278c-0.666-0.666-0.734-1.68-0.15-2.263l0,0c0.583-0.582,1.596-0.515,2.262,0.151l8.554,8.552
		c0.668,0.67,0.735,1.682,0.151,2.266l0,0c-0.581,0.58-1.596,0.516-2.263-0.154L12.161,14.278z"/>
	<path fill="#FFFFFF" d="M12.161,20.719c-0.668,0.67-0.734,1.68-0.15,2.266l0,0c0.582,0.582,1.596,0.516,2.262-0.152l8.554-8.554
		c0.668-0.667,0.734-1.68,0.151-2.263l0,0c-0.583-0.583-1.597-0.516-2.263,0.151L12.161,20.719z"/>
</g>
</svg>
