<?xml version="1.0" encoding="utf-8"?>
<!-- Generator: Adobe Illustrator 16.0.0, SVG Export Plug-In . SVG Version: 6.00 Build 0)  -->
<!DOCTYPE svg PUBLIC "-//W3C//DTD SVG 1.1//EN" "http://www.w3.org/Graphics/SVG/1.1/DTD/svg11.dtd">
<svg version="1.1" id="Capa_1" xmlns="http://www.w3.org/2000/svg" xmlns:xlink="http://www.w3.org/1999/xlink" x="0px" y="0px"
	 width="50px" height="50px" viewBox="0 0 50 50" enable-background="new 0 0 50 50" xml:space="preserve">
<rect fill-rule="evenodd" clip-rule="evenodd" fill="#18142D" width="50" height="50"/>
<path fill-rule="evenodd" clip-rule="evenodd" fill="#FFFFFF" d="M0.829,25c0-13.452,10.851-24.312,24.287-24.308
	c13.372,0.002,24.168,10.92,24.159,24.435c-0.004,13.387-10.916,24.196-24.413,24.182C11.658,49.293,0.829,38.345,0.829,25z
	 M5.555,24.946c0,10.866,8.725,19.645,19.515,19.635c10.648-0.014,19.476-8.774,19.481-19.331
	c0.005-11.065-8.586-19.815-19.472-19.832C14.294,5.403,5.555,14.142,5.555,24.946z"/>
<path fill-rule="evenodd" clip-rule="evenodd" fill="#FFFFFF" d="M22.798,23.185c1.394,0.596,2.224,1.614,2.455,3.093
	c0.499,3.222-1.556,5.751-4.909,5.971c-2.856,0.186-5.722,0.039-8.582,0.092c-0.434,0.002-0.407-0.234-0.407-0.529
	c0.006-2.939,0.002-5.876,0.002-8.815c0-2.393,0.008-4.786-0.006-7.176c-0.003-0.396,0.083-0.546,0.513-0.542
	c2.687,0.021,5.371,0.019,8.059,0.018c0.754,0,1.479,0.153,2.187,0.404c2.684,0.954,3.63,4.822,1.646,6.741
	C23.477,22.708,23.15,22.915,22.798,23.185z M17.785,24.841c-0.759,0-1.387,0.02-2.012-0.007c-0.371-0.019-0.515,0.079-0.508,0.48
	c0.021,1.195,0.021,2.388,0,3.579c-0.004,0.369,0.12,0.466,0.476,0.458c0.975-0.017,1.954-0.004,2.927-0.004
	c0.534-0.003,1.063-0.013,1.575-0.162c1.002-0.29,1.52-1.119,1.482-2.375c-0.032-0.995-0.606-1.644-1.619-1.866
	C19.291,24.767,18.467,24.889,17.785,24.841z M17.563,22.014c0.752-0.041,1.643,0.104,2.503-0.171
	c0.999-0.316,1.366-0.874,1.297-1.95c-0.055-0.905-0.469-1.35-1.482-1.524c-1.422-0.24-2.855-0.073-4.283-0.123
	c-0.279-0.012-0.328,0.135-0.325,0.364c0.006,1,0.012,2-0.003,3c-0.005,0.303,0.099,0.42,0.405,0.408
	C16.262,22,16.849,22.014,17.563,22.014z"/>
<path fill-rule="evenodd" clip-rule="evenodd" fill="#FFFFFF" d="M34.229,26.602c-1.315,0-2.627,0.012-3.938-0.004
	c-0.362-0.004-0.483,0.076-0.415,0.463c0.205,1.201,0.77,2.125,2.004,2.407c1.266,0.302,2.477,0.231,3.277-1.03
	c0.108-0.171,0.26-0.209,0.448-0.209c0.861,0.002,1.726,0.016,2.588,0.002c0.379-0.01,0.367,0.162,0.271,0.434
	c-0.512,1.461-1.517,2.499-2.929,3.034c-2.45,0.926-4.813,0.694-6.946-0.917c-1.112-0.834-1.646-2.016-1.837-3.363
	c-0.243-1.717-0.188-3.399,0.539-5.013c0.95-2.124,3.43-3.433,6-3.156c3.273,0.348,5.212,2.382,5.396,5.665
	c0.022,0.412,0.021,0.826,0.06,1.234c0.038,0.364-0.101,0.466-0.459,0.464C36.935,26.594,35.582,26.602,34.229,26.602z
	 M32.646,24.473c0.786,0,1.568-0.012,2.354,0.005c0.32,0.008,0.424-0.118,0.358-0.42c-0.1-0.46-0.234-0.91-0.566-1.268
	c-0.844-0.907-1.884-1.046-3.021-0.766c-1.07,0.268-1.498,1.105-1.771,2.069c-0.088,0.3,0.006,0.385,0.298,0.385
	C31.079,24.467,31.866,24.473,32.646,24.473z"/>
<path fill-rule="evenodd" clip-rule="evenodd" fill="#FFFFFF" d="M32.593,17.957c-0.954,0-1.914-0.012-2.871,0.008
	c-0.368,0.01-0.507-0.091-0.509-0.486c-0.018-1.477-0.033-1.475,1.442-1.477c1.64,0,3.282,0.009,4.925-0.007
	c0.371-0.005,0.501,0.086,0.501,0.482c0.007,1.48,0.022,1.48-1.434,1.48C33.964,17.957,33.282,17.957,32.593,17.957z"/>
</svg>
